<svg xmlns="http://www.w3.org/2000/svg" version="1.1" xmlns:xlink="http://www.w3.org/1999/xlink" viewBox="0 0 8.858157732787932 3.1283212425428113"><g transform="matrix(1,0,0,1,2.827431772200807,1.0219106212714055)"><rect width="8.858157732787932" height="8.858157732787932" x="-2.827431772200807" y="-3.886828866393966" fill="#141212"></rect><g clip-path="url(#SvgjsClipPath1002)"><g clip-path="url(#SvgjsClipPath1000829b2b99-1e32-4cba-a987-5cbe38920661)"><path d=" M -0.7861312965608274 0.1476485188871547 L -1.3657718902859115 -0.18675951595423973 C -1.376472947400836 -0.19300179927127914 -1.3880657592753376 -0.19567706355001024 -1.3996585711498393 -0.19567706355001024 C -1.411251383024341 -0.19567706355001024 -1.4237359496584197 -0.19300179927127914 -1.4335452520137675 -0.18675951595423973 L -2.0131858457388514 0.1476485188871547 C -2.0345879599687007 0.1601330855212335 -2.047072526602779 0.18242695451065982 -2.047072526602779 0.20739608777881724 L -2.047072526602779 0.8771039122211832 C -2.047072526602779 0.9020730454893409 -2.0336962052091234 0.924366914478767 -2.0131858457388514 0.9368514811128457 L -1.4335452520137675 1.2712595159542401 C -1.422844194898843 1.2775017992712796 -1.411251383024341 1.2801770635500107 -1.3996585711498393 1.2801770635500107 C -1.3880657592753376 1.2801770635500107 -1.3755811926412589 1.2775017992712796 -1.3657718902859115 1.2703677611946629 L -0.7861312965608274 0.9359597263532686 C -0.7647291823309781 0.9234751597191897 -0.7522446156968994 0.9011812907297636 -0.7522446156968994 0.8762121574616064 L -0.7522446156968994 0.20739608777881724 C -0.7522446156968994 0.18242695451065982 -0.7647291823309781 0.1601330855212335 -0.7861312965608274 0.1476485188871547 Z M -0.8895748486717654 0.836974948040216 L -1.4005503259094163 1.1321457734602203 L -1.911525803147067 0.836974948040216 L -1.911525803147067 0.24663329720020755 L -1.4005503259094163 -0.04853752821979673 L -0.8895748486717654 0.24663329720020732 L -0.8895748486717654 0.836974948040216 Z" fill="#66ccff" transform="matrix(1,0,0,1,0,0)" fill-rule="nonzero"></path></g><g clip-path="url(#SvgjsClipPath1000829b2b99-1e32-4cba-a987-5cbe38920661)"><path d=" M -1.4005503259094163 -0.5951831958405296 C -1.4192771758605343 -0.5951831958405296 -1.4388957805712297 -0.5907244220426443 -1.4558391210031933 -0.5800233649277197 C -1.5084526518182395 -0.5497037031020999 -1.527179501769358 -0.481930341374244 -1.4959680851841606 -0.4293168105591979 C -1.4754577257138883 -0.39364662017611585 -1.4380040258116524 -0.3740280154654207 -1.3996585711498388 -0.3740280154654207 C -1.380931721198721 -0.3740280154654207 -1.3613131164880257 -0.3784867892633059 -1.3443697760560618 -0.3891878463782306 C -1.2917562452410158 -0.41950750820385035 -1.2730293952898977 -0.4872808699317063 -1.3042408118750946 -0.5398944007467523 C -1.3247511713453668 -0.5755645911298345 -1.3622048712476031 -0.5951831958405296 -1.4005503259094163 -0.5951831958405296 Z" fill="#66ccff" transform="matrix(1,0,0,1,0,0)" fill-rule="nonzero"></path></g><g clip-path="url(#SvgjsClipPath1000829b2b99-1e32-4cba-a987-5cbe38920661)"><path d=" M -0.5114708306110953 0.9448772739490394 C -0.5301976805622135 0.9448772739490394 -0.5498162852729085 0.9493360477469246 -0.5667596257048724 0.960037104861849 C -0.6193731565199183 0.9903567666874689 -0.6381000064710365 1.0581301284153244 -0.6068885898858398 1.1107436592303708 C -0.5863782304155674 1.1464138496134533 -0.5489245305133312 1.1660324543241483 -0.5105790758515181 1.1660324543241483 C -0.4918522259003999 1.1660324543241483 -0.47223362118970447 1.1615736805262626 -0.45529028075774103 1.1508726234113382 C -0.40267674994269465 1.1205529615857186 -0.3839498999915767 1.0527795998578622 -0.4151613165767736 1.0001660690428165 C -0.43567167604704604 0.9644958786597344 -0.47312537594928217 0.9448772739490394 -0.5114708306110953 0.9448772739490394 Z" fill="#66ccff" transform="matrix(1,0,0,1,0,0)" fill-rule="nonzero"></path></g><g clip-path="url(#SvgjsClipPath1000829b2b99-1e32-4cba-a987-5cbe38920661)"><path d=" M -1.4005503259094163 1.4585280154654212 C -1.4192771758605343 1.4585280154654212 -1.4388957805712297 1.4629867892633062 -1.4558391210031933 1.4736878463782306 C -1.5084526518182395 1.504007508203851 -1.527179501769358 1.5717808699317066 -1.4959680851841606 1.6243944007467523 C -1.4754577257138883 1.6600645911298346 -1.4380040258116524 1.6796831958405298 -1.3996585711498388 1.6796831958405298 C -1.380931721198721 1.6796831958405298 -1.3613131164880257 1.675224422042644 -1.3443697760560618 1.6645233649277196 C -1.2917562452410158 1.6342037031021004 -1.2730293952898977 1.5664303413742435 -1.3042408118750946 1.5138168105591983 C -1.3247511713453668 1.4781466201761164 -1.3622048712476031 1.4585280154654212 -1.4005503259094163 1.4585280154654212 Z" fill="#66ccff" transform="matrix(1,0,0,1,0,0)" fill-rule="nonzero"></path></g><g clip-path="url(#SvgjsClipPath1000829b2b99-1e32-4cba-a987-5cbe38920661)"><path d=" M -2.289629821207737 -0.08153245432414769 C -2.308356671158855 -0.08153245432414769 -2.32797527586955 -0.0770736805262624 -2.344918616301514 -0.06637262341133776 C -2.3975321471165603 -0.03605296158571791 -2.4162589970676787 0.03172040014213795 -2.3850475804824818 0.08433393095718411 C -2.3645372210122093 0.12000412134026617 -2.3270835211099734 0.13962272605096138 -2.2887380664481602 0.13962272605096138 C -2.270011216497042 0.13962272605096138 -2.2503926117863466 0.1351639522530761 -2.2334492713543828 0.12446289513815145 C -2.1808357405393366 0.0941432333125316 -2.1621088905882186 0.02636987158467574 -2.1933203071734155 -0.02624365923037042 C -2.2138306666436876 -0.061913849613452476 -2.251284366545924 -0.08153245432414769 -2.289629821207737 -0.08153245432414769 Z" fill="#66ccff" transform="matrix(1,0,0,1,0,0)" fill-rule="nonzero"></path></g><g clip-path="url(#SvgjsClipPath1000829b2b99-1e32-4cba-a987-5cbe38920661)"><path d=" M -2.2343410261139596 0.960037104861849 C -2.251284366545924 0.9502278025065016 -2.270902971256619 0.9448772739490394 -2.289629821207737 0.9448772739490394 C -2.32797527586955 0.9448772739490394 -2.3654289757717866 0.9644958786597344 -2.3859393352420586 1.0001660690428165 C -2.4162589970676787 1.0527795998578622 -2.3984239018761375 1.1205529615857186 -2.3458103710610914 1.1508726234113382 C -2.3288670306291275 1.160681925766686 -2.3092484259184323 1.1660324543241483 -2.290521575967314 1.1660324543241483 C -2.2521761213055007 1.1660324543241483 -2.2147224214032644 1.1464138496134533 -2.1942120619329923 1.1107436592303708 C -2.1630006453477955 1.0581301284153244 -2.181727495298914 0.9903567666874689 -2.2343410261139596 0.960037104861849 Z" fill="#66ccff" transform="matrix(1,0,0,1,0,0)" fill-rule="nonzero"></path></g><g clip-path="url(#SvgjsClipPath1000829b2b99-1e32-4cba-a987-5cbe38920661)"><path d=" M -0.5105790758515185 0.13962272605096115 C -0.4499397522002788 0.13962272605096115 -0.40000148566396376 0.09057621427422347 -0.40000148566396376 0.029045135863406624 C -0.40000148566396376 -0.03159418778783285 -0.4490479974407018 -0.0815324543241478 -0.5105790758515185 -0.0815324543241478 C -0.572110154262335 -0.0815324543241478 -0.6220484207986499 -0.032485942547409885 -0.6220484207986499 0.0281533811038297 C -0.6220484207986499 0.08968445951464632 -0.572110154262335 0.13962272605096115 -0.5105790758515185 0.13962272605096115 Z" fill="#66ccff" transform="matrix(1,0,0,1,0,0)" fill-rule="nonzero"></path></g><g clip-path="url(#SvgjsClipPath1000829b2b99-1e32-4cba-a987-5cbe38920661)"><path d=" M -2.2646606879395796 0.8467842503955634 L -2.3137071997163177 0.8467842503955634 C -2.337784578224898 0.8467842503955634 -2.357403182935593 0.8271656456848684 -2.357403182935593 0.8030882671762878 L -2.357403182935593 0.28141173282371246 C -2.357403182935593 0.2573343543151322 -2.337784578224898 0.23771574960443687 -2.3137071997163177 0.23771574960443687 L -2.2646606879395796 0.23771574960443687 C -2.240583309430999 0.23771574960443687 -2.2209647047203043 0.2573343543151322 -2.2209647047203043 0.28141173282371246 L -2.2209647047203043 0.802196512416711 C -2.220964704720304 0.8271656456848682 -2.240583309430999 0.8467842503955634 -2.2646606879395796 0.8467842503955634 Z" fill="#ff0000" transform="matrix(1,0,0,1,0,0)" fill-rule="nonzero"></path></g><g clip-path="url(#SvgjsClipPath1000829b2b99-1e32-4cba-a987-5cbe38920661)"><path d=" M -0.48650169734293813 0.8467842503955634 L -0.5355482091196757 0.8467842503955634 C -0.5596255876282561 0.8467842503955634 -0.5792441923389513 0.8271656456848684 -0.5792441923389513 0.8030882671762878 L -0.5792441923389513 0.28141173282371246 C -0.5792441923389513 0.2573343543151322 -0.5596255876282563 0.23771574960443687 -0.5355482091196757 0.23771574960443687 L -0.48650169734293813 0.23771574960443687 C -0.46242431883435775 0.23771574960443687 -0.4428057141236623 0.2573343543151322 -0.4428057141236623 0.28141173282371246 L -0.4428057141236623 0.802196512416711 C -0.4428057141236623 0.8271656456848682 -0.4624243188343573 0.8467842503955634 -0.48650169734293813 0.8467842503955634 Z" fill="#ff0000" transform="matrix(1,0,0,1,0,0)" fill-rule="nonzero"></path></g><g clip-path="url(#SvgjsClipPath1000829b2b99-1e32-4cba-a987-5cbe38920661)"><path d=" M -0.763837427571401 -0.037836471104872094 L -1.2150653359173895 -0.2982288609013713 C -1.2364674501472388 -0.31071342753545 -1.2436014882238549 -0.33746607032276155 -1.2311169215897766 -0.35886818455261077 L -1.206147788321619 -0.40167241301230927 C -1.1936632216875402 -0.42307452724215844 -1.1669105789002285 -0.43020856531877494 -1.1455084646703793 -0.4177239986846962 L -0.6942805563243908 -0.15733160888819692 C -0.6728784420945417 -0.1448470422541182 -0.6657444040179252 -0.11809439946680661 -0.6782289706520039 -0.09669228523695744 L -0.7031981039201616 -0.05388805677725894 C -0.7165744253138173 -0.03337769730698681 -0.7433270681011288 -0.02624365923037042 -0.763837427571401 -0.037836471104872094 Z" fill="#ff0000" transform="matrix(1,0,0,1,0,0)" fill-rule="nonzero"></path></g><g clip-path="url(#SvgjsClipPath1000829b2b99-1e32-4cba-a987-5cbe38920661)"><path d=" M -2.0961190383795167 -0.05477981153683609 L -2.121088171647674 -0.09758403999653464 C -2.133572738281753 -0.11898615422638387 -2.1255469454455596 -0.14573879701369546 -2.105036585975287 -0.15822336364777412 L -1.6538086776292988 -0.41861575344427326 C -1.6324065633994498 -0.43110032007835203 -1.6056539206121379 -0.42307452724215855 -1.5931693539780594 -0.4025641677718864 L -1.568200220709902 -0.3597599393121879 C -1.555715654075823 -0.3383578250823387 -1.5637414469120168 -0.3116051822950271 -1.584251806382289 -0.2991206156609484 L -2.0363714694878543 -0.03872822586444924 C -2.0568818289581268 -0.02624365923037042 -2.084526226505015 -0.03337769730698681 -2.0961190383795167 -0.05477981153683609 Z" fill="#ff0000" transform="matrix(1,0,0,1,0,0)" fill-rule="nonzero"></path></g><g clip-path="url(#SvgjsClipPath1000829b2b99-1e32-4cba-a987-5cbe38920661)"><path d=" M -1.653808677629299 1.5022239986846966 L -2.105036585975287 1.2418316088881973 C -2.1264387002051364 1.229347042254119 -2.133572738281753 1.2025943994668071 -2.121088171647674 1.1811922852369583 L -2.0961190383795167 1.138388056777259 C -2.0836344717454383 1.1169859425474102 -2.0568818289581268 1.1098519044707935 -2.035479714728277 1.1223364711048724 L -1.584251806382289 1.3827288609013717 C -1.5628496921524397 1.39521342753545 -1.5557156540758235 1.4219660703227617 -1.568200220709902 1.4433681845526114 L -1.5931693539780596 1.48617241301231 C -1.6056539206121383 1.506682772482582 -1.6324065633994498 1.5138168105591983 -1.653808677629299 1.5022239986846966 Z" fill="#ff0000" transform="matrix(1,0,0,1,0,0)" fill-rule="nonzero"></path></g><g clip-path="url(#SvgjsClipPath1000829b2b99-1e32-4cba-a987-5cbe38920661)"><path d=" M -1.2070395430811958 1.4852806582527327 L -1.2320086763493534 1.4424764297930341 C -1.2444932429834321 1.4210743155631844 -1.2364674501472388 1.3943216727758734 -1.2159570906769666 1.3818371061417944 L -0.7647291823309781 1.1214447163452952 C -0.7433270681011288 1.1089601497112163 -0.7165744253138173 1.1169859425474102 -0.7040898586797384 1.1374963020176825 L -0.6791207254115808 1.180300530477381 C -0.6666361587775023 1.2017026447072305 -0.6746619516136956 1.2284552874945418 -0.6951723110839678 1.2409398541286207 L -1.1464002194299563 1.5013322439251198 C -1.1678023336598053 1.5138168105591983 -1.1954467312066945 1.506682772482582 -1.2070395430811958 1.4852806582527327 Z" fill="#ff0000" transform="matrix(1,0,0,1,0,0)" fill-rule="nonzero"></path></g><g clip-path="url(#SvgjsClipPath1000829b2b99-1e32-4cba-a987-5cbe38920661)"><path d=" M -1.685020094214496 0.6577322413652285 C -1.685020094214496 0.6336548628566481 -1.7046386989251912 0.6140362581459526 -1.7287160774337715 0.6140362581459526 L -1.7777625892105093 0.6140362581459526 C -1.80183996771909 0.6140362581459526 -1.8214585724297847 0.6336548628566478 -1.8214585724297847 0.6577322413652285 L -1.8214585724297847 0.8271656456848682 L -1.684128339454919 0.9065318192872258 L -1.684128339454919 0.6577322413652285 Z" fill="#ff0000" transform="matrix(1,0,0,1,0,0)" fill-rule="nonzero"></path></g><g clip-path="url(#SvgjsClipPath1000829b2b99-1e32-4cba-a987-5cbe38920661)"><path d=" M -1.449596837686154 0.5400206131010576 C -1.449596837686154 0.5159432345924773 -1.469215442396849 0.49632462988178205 -1.49329282090543 0.49632462988178205 L -1.5423393326821675 0.49632462988178205 C -1.5664167111907483 0.49632462988178205 -1.586035315901443 0.515943234592477 -1.586035315901443 0.5400206131010576 L -1.586035315901443 0.9627123691405801 L -1.4487050829265773 1.0420785427429378 L -1.4487050829265773 0.5400206131010576 Z" fill="#66ccff" transform="matrix(1,0,0,1,0,0)" fill-rule="nonzero"></path></g><g clip-path="url(#SvgjsClipPath1000829b2b99-1e32-4cba-a987-5cbe38920661)"><path d=" M -1.2141735811578123 0.4419275895475818 C -1.2141735811578123 0.41785021103900144 -1.2337921858685073 0.39823160632830634 -1.257869564377088 0.39823160632830634 L -1.3069160761538259 0.39823160632830634 C -1.3309934546624063 0.39823160632830634 -1.3506120593731012 0.41785021103900144 -1.3506120593731012 0.4419275895475818 L -1.3506120593731012 1.0420785427429378 L -1.2132818263982355 0.9627123691405801 L -1.2132818263982355 0.4419275895475818 Z" fill="#0099ff" transform="matrix(1,0,0,1,0,0)" fill-rule="nonzero"></path></g><g clip-path="url(#SvgjsClipPath1000829b2b99-1e32-4cba-a987-5cbe38920661)"><path d=" M -0.9787503246294706 0.3438345659941061 C -0.9787503246294706 0.3197571874855256 -0.9983689293401659 0.30013858277483063 -1.022446307848746 0.30013858277483063 L -1.071492819625484 0.30013858277483063 C -1.0955701981340644 0.30013858277483063 -1.1151888028447599 0.3197571874855256 -1.1151888028447599 0.3438345659941061 L -1.1151888028447599 0.9065318192872258 L -0.9778585698698934 0.8271656456848682 L -0.9778585698698934 0.3438345659941061 Z" fill="#0066cc" transform="matrix(1,0,0,1,0,0)" fill-rule="nonzero"></path></g></g><g><path d=" M 0.114 1.0845000000000002 L 0.114 0.05550000000000033 L 0.4545 0.05550000000000033 L 0.6015 0.5820000000000002 Q 0.6105 0.6105000000000003 0.6195 0.6495000000000002 Q 0.6285000000000001 0.6885000000000002 0.63825 0.7267500000000002 Q 0.648 0.7650000000000002 0.654 0.7950000000000003 L 0.666 0.7950000000000003 Q 0.669 0.7695000000000003 0.6765 0.7342500000000003 Q 0.684 0.6990000000000003 0.6930000000000001 0.6585000000000003 Q 0.7020000000000001 0.6180000000000002 0.7125 0.5805000000000002 L 0.8595 0.05550000000000033 L 1.194 0.05550000000000033 L 1.194 1.0845000000000002 L 0.9735 1.0845000000000002 L 0.9735 0.5970000000000002 Q 0.9735 0.5295000000000002 0.9742500000000001 0.46125000000000027 Q 0.975 0.39300000000000024 0.9772500000000001 0.3420000000000002 Q 0.9795 0.29100000000000026 0.9795 0.27600000000000025 L 0.9675 0.27600000000000025 Q 0.9645 0.2925000000000002 0.95325 0.3367500000000002 Q 0.9420000000000001 0.3810000000000002 0.92925 0.4305000000000002 Q 0.9165 0.4800000000000002 0.906 0.5160000000000002 L 0.7455 1.0845000000000002 L 0.5505 1.0845000000000002 L 0.3885 0.5175000000000002 Q 0.3795 0.4860000000000002 0.36825 0.44325000000000025 Q 0.357 0.4005000000000002 0.34725 0.35475000000000023 Q 0.3375 0.3090000000000003 0.3285 0.27600000000000025 L 0.3165 0.27600000000000025 Q 0.318 0.3165000000000002 0.3195 0.37275000000000025 Q 0.321 0.42900000000000027 0.3225 0.4882500000000002 Q 0.324 0.5475000000000002 0.324 0.5970000000000002 L 0.324 1.0845000000000002 L 0.114 1.0845000000000002 M 1.765513916015625 1.1025000000000003 Q 1.6350139160156252 1.1025000000000003 1.5465139160156252 1.0582500000000001 Q 1.4580139160156251 1.0140000000000002 1.4130139160156252 0.9225000000000002 Q 1.368013916015625 0.8310000000000002 1.368013916015625 0.6900000000000002 Q 1.368013916015625 0.5475000000000002 1.4130139160156252 0.4567500000000002 Q 1.4580139160156251 0.3660000000000002 1.5457639160156251 0.3217500000000002 Q 1.6335139160156251 0.2775000000000002 1.761013916015625 0.2775000000000002 Q 1.8810139160156252 0.2775000000000002 1.963513916015625 0.32025000000000026 Q 2.046013916015625 0.3630000000000002 2.0880139160156252 0.45225000000000026 Q 2.130013916015625 0.5415000000000002 2.130013916015625 0.6825000000000002 L 2.130013916015625 0.7365000000000002 L 1.579513916015625 0.7365000000000002 Q 1.5825139160156252 0.8055000000000002 1.601263916015625 0.8535000000000003 Q 1.620013916015625 0.9015000000000002 1.659763916015625 0.9247500000000002 Q 1.6995139160156252 0.9480000000000002 1.765513916015625 0.9480000000000002 Q 1.801513916015625 0.9480000000000002 1.8307639160156253 0.9390000000000003 Q 1.860013916015625 0.9300000000000003 1.8810139160156252 0.9120000000000003 Q 1.902013916015625 0.8940000000000002 1.914013916015625 0.8670000000000002 Q 1.926013916015625 0.8400000000000003 1.926013916015625 0.8055000000000002 L 2.130013916015625 0.8055000000000002 Q 2.130013916015625 0.8805000000000003 2.103013916015625 0.9360000000000003 Q 2.0760139160156252 0.9915000000000003 2.028013916015625 1.0282500000000003 Q 1.9800139160156252 1.0650000000000002 1.9132639160156253 1.0837500000000002 Q 1.846513916015625 1.1025000000000003 1.765513916015625 1.1025000000000003 M 1.5825139160156252 0.6045000000000003 L 1.9155139160156252 0.6045000000000003 Q 1.9155139160156252 0.5595000000000002 1.9042639160156252 0.5265000000000002 Q 1.893013916015625 0.49350000000000027 1.8735139160156251 0.47250000000000025 Q 1.8540139160156253 0.45150000000000023 1.826263916015625 0.4417500000000002 Q 1.7985139160156252 0.4320000000000003 1.7640139160156252 0.4320000000000003 Q 1.707013916015625 0.4320000000000003 1.6687639160156251 0.4507500000000002 Q 1.6305139160156252 0.46950000000000025 1.6102639160156251 0.5077500000000003 Q 1.590013916015625 0.5460000000000003 1.5825139160156252 0.6045000000000003 M 2.5214904785156254 1.1025000000000003 Q 2.446490478515625 1.1025000000000003 2.399990478515625 1.0755000000000003 Q 2.353490478515625 1.0485000000000002 2.3324904785156253 1.0027500000000003 Q 2.3114904785156254 0.9570000000000003 2.3114904785156254 0.9015000000000002 L 2.3114904785156254 0.4560000000000002 L 2.2139904785156252 0.4560000000000002 L 2.2139904785156252 0.2955000000000002 L 2.3189904785156252 0.2955000000000002 L 2.3579904785156254 0.07050000000000023 L 2.5199904785156253 0.07050000000000023 L 2.5199904785156253 0.2955000000000002 L 2.6639904785156254 0.2955000000000002 L 2.6639904785156254 0.4560000000000002 L 2.5199904785156253 0.4560000000000002 L 2.5199904785156253 0.8670000000000002 Q 2.5199904785156253 0.9030000000000002 2.536490478515625 0.9217500000000003 Q 2.552990478515625 0.9405000000000002 2.5904904785156253 0.9405000000000002 L 2.6639904785156254 0.9405000000000002 L 2.6639904785156254 1.0785000000000002 Q 2.645990478515625 1.0845000000000002 2.621990478515625 1.0897500000000002 Q 2.597990478515625 1.0950000000000002 2.5709904785156255 1.0987500000000003 Q 2.5439904785156253 1.1025000000000003 2.5214904785156254 1.1025000000000003 M 2.8019604492187504 1.0845000000000002 L 2.8019604492187504 0.2955000000000002 L 2.9744604492187503 0.2955000000000002 L 2.9909604492187505 0.4185000000000002 L 3.0014604492187504 0.4185000000000002 Q 3.0164604492187506 0.3795000000000003 3.0404604492187506 0.3472500000000003 Q 3.06446044921875 0.3150000000000003 3.10046044921875 0.2955000000000002 Q 3.1364604492187502 0.27600000000000025 3.1844604492187503 0.27600000000000025 Q 3.2099604492187503 0.27600000000000025 3.2309604492187503 0.2812500000000002 Q 3.2519604492187506 0.2865000000000002 3.26246044921875 0.29100000000000026 L 3.26246044921875 0.4800000000000002 L 3.1979604492187503 0.4800000000000002 Q 3.1514604492187503 0.4800000000000002 3.1162104492187503 0.49275000000000024 Q 3.0809604492187503 0.5055000000000003 3.0569604492187503 0.5325000000000002 Q 3.0329604492187503 0.5595000000000002 3.0217104492187503 0.5985000000000003 Q 3.0104604492187503 0.6375000000000002 3.0104604492187503 0.6900000000000002 L 3.0104604492187503 1.0845000000000002 L 2.8019604492187504 1.0845000000000002 M 3.3749677734375005 0.18000000000000027 L 3.3749677734375005 2.220446049250313e-16 L 3.5834677734375004 2.220446049250313e-16 L 3.5834677734375004 0.18000000000000027 L 3.3749677734375005 0.18000000000000027 M 3.3749677734375005 1.0845000000000002 L 3.3749677734375005 0.2955000000000002 L 3.5834677734375004 0.2955000000000002 L 3.5834677734375004 1.0845000000000002 L 3.3749677734375005 1.0845000000000002 M 4.1250109863281255 1.1025000000000003 Q 3.9990109863281256 1.1025000000000003 3.9135109863281254 1.0582500000000001 Q 3.8280109863281258 1.0140000000000002 3.7837609863281254 0.9217500000000003 Q 3.7395109863281255 0.8295000000000002 3.7395109863281255 0.6900000000000002 Q 3.7395109863281255 0.5475000000000002 3.7837609863281254 0.4567500000000002 Q 3.8280109863281258 0.3660000000000002 3.9142609863281255 0.3210000000000002 Q 4.000510986328125 0.27600000000000025 4.1250109863281255 0.27600000000000025 Q 4.206010986328126 0.27600000000000025 4.271260986328126 0.2955000000000002 Q 4.3365109863281255 0.3150000000000003 4.3845109863281255 0.35550000000000026 Q 4.432510986328126 0.39600000000000024 4.457260986328126 0.45525000000000027 Q 4.482010986328126 0.5145000000000002 4.482010986328126 0.5955000000000003 L 4.273510986328126 0.5955000000000003 Q 4.273510986328126 0.5415000000000002 4.257010986328126 0.5070000000000002 Q 4.240510986328125 0.47250000000000025 4.206760986328126 0.45450000000000024 Q 4.1730109863281255 0.4365000000000002 4.122010986328125 0.4365000000000002 Q 4.062010986328126 0.4365000000000002 4.024510986328125 0.46350000000000025 Q 3.9870109863281256 0.49050000000000027 3.9690109863281258 0.5430000000000003 Q 3.9510109863281255 0.5955000000000003 3.9510109863281255 0.6735000000000002 L 3.9510109863281255 0.7080000000000002 Q 3.9510109863281255 0.7845000000000002 3.969760986328126 0.8370000000000002 Q 3.9885109863281256 0.8895000000000002 4.027510986328125 0.9157500000000003 Q 4.066510986328126 0.9420000000000002 4.129510986328126 0.9420000000000002 Q 4.180510986328126 0.9420000000000002 4.214260986328125 0.9240000000000003 Q 4.248010986328126 0.9060000000000002 4.2660109863281255 0.8700000000000002 Q 4.284010986328125 0.8340000000000003 4.284010986328125 0.7830000000000003 L 4.482010986328126 0.7830000000000003 Q 4.482010986328126 0.8595000000000003 4.457260986328126 0.9195000000000002 Q 4.432510986328126 0.9795000000000003 4.3852609863281256 1.0200000000000002 Q 4.3380109863281255 1.0605000000000002 4.272010986328126 1.0815000000000003 Q 4.206010986328126 1.1025000000000003 4.1250109863281255 1.1025000000000003 M 4.558508056640625 1.0845000000000002 L 4.929008056640626 0.5430000000000003 L 4.594508056640626 0.05550000000000033 L 4.8675080566406255 0.05550000000000033 L 5.0805080566406255 0.3810000000000002 L 5.088008056640626 0.3810000000000002 L 5.299508056640626 0.05550000000000033 L 5.556008056640626 0.05550000000000033 L 5.2200080566406255 0.5430000000000003 L 5.590508056640626 1.0845000000000002 L 5.317508056640626 1.0845000000000002 L 5.070008056640626 0.7035000000000002 L 5.062508056640626 0.7035000000000002 L 4.816508056640625 1.0845000000000002 L 4.558508056640625 1.0845000000000002" fill="#ffffff" fill-rule="nonzero"></path></g><g></g></g><defs><clipPath id="SvgjsClipPath1002"><path d=" M -2.400704346769931 -0.5951831958405296 h 2.0007043467699313 v 2.2748663916810594 h -2.0007043467699313 Z"></path></clipPath><clipPath id="SvgjsClipPath1000829b2b99-1e32-4cba-a987-5cbe38920661"><path d=" M -2.400704346769931 -0.5951831958405296 L -0.3999999999999999 -0.5951831958405296 L -0.3999999999999999 1.6796831958405298 L -2.400704346769931 1.6796831958405298 Z"></path></clipPath></defs></svg>